# xmcd CD database file
# Copyright (C) 1997 Ti Kan
#
# Track frame offsets:
#  150
#  11040
#  22832
#  33080
#  46895
#  59087
#  70650
#  81097
#  92455
#  103162
#  117660
#  128782
#  139380
#  151575
#  162382
#  172442
#  184677
#  195325
#  206097
#  220070
#  232935
#  244635
#  254412
#
# Disc length: 3544 seconds
#
# Revision: 2
# Processed by: cddbd v1.4PL0 Copyright (c) Steve Scherf et al.
# Submitted via: Gronk 1.4
#
DISCID=3c0dd617
DTITLE=Junior Wells - Messin' With The Kid:  Junior Wells 1957 - 1963
DYEAR=1900
DGENRE=blues
TTITLE0=Come On In This House
TTITLE1=Little By Little
TTITLE2=So Tired
TTITLE3=She's A Sweet One
TTITLE4=It Hurts Me Too
TTITLE5=Universal Rock
TTITLE6=Messin' With The Kid
TTITLE7=Prison Bars All Around Me
TTITLE8=You Couldn't Care
TTITLE9=I Could Cry
TTITLE10=You Sure Look Good To Me
TTITLE11=When The Cat's Gone The Mice Play
TTITLE12=Two-Headed Woman
TTITLE13=Cha Cha Cha In Blues
TTITLE14=Lovey Dovey Lovey One
TTITLE15=I'm A Stranger
TTITLE16=The Things I'd Do For You
TTITLE17=I Need Me A Car
TTITLE18=I'll Get You Too
TTITLE19=One Day
TTITLE20=Calling All Blues
TTITLE21=Love Me
TTITLE22=Galloping Horses A Lazy Mule
EXTD=PCD 03\n\nSubmitted 7/7/97\n[Jmccoy@efn.org]
EXTT0=
EXTT1=
EXTT2=
EXTT3=
EXTT4=
EXTT5=
EXTT6=
EXTT7=
EXTT8=
EXTT9=
EXTT10=
EXTT11=
EXTT12=
EXTT13=
EXTT14=
EXTT15=
EXTT16=
EXTT17=
EXTT18=
EXTT19=
EXTT20=
EXTT21=
EXTT22=
PLAYORDER=
